<?xml version="1.0" encoding="utf-8"?>
<!-- Generator: Adobe Illustrator 19.1.0, SVG Export Plug-In . SVG Version: 6.00 Build 0)  -->
<!DOCTYPE svg PUBLIC "-//W3C//DTD SVG 1.1//EN" "http://www.w3.org/Graphics/SVG/1.1/DTD/svg11.dtd">
<svg version="1.1" id="Layer_1" xmlns="http://www.w3.org/2000/svg" xmlns:xlink="http://www.w3.org/1999/xlink" x="0px" y="0px"
	 width="355.2px" height="308.5px" viewBox="0 0 355.2 308.5" style="enable-background:new 0 0 355.2 308.5;" xml:space="preserve"
	>
<style type="text/css">
	.st0{fill:#D74CFF;}
</style>
<g>
	<path class="st0" d="M14.6,35.6l100.2,104.9V6.1h-14.5v99.7L0.3,0.8v134h14.3v0h33.9V250h14.3V121.4H14.6V35.6z M321.5,44.3V97
		l34-26.4L321.5,44.3z M338.4,121.4h-33.9V6.1h-14.3v128.6h48.2v85.8L238.2,115.6V250h14.5v-99.7l100,105v-134L338.4,121.4
		L338.4,121.4z M202,78.4c22.7,0,40.7-11.6,40.7-36c0-10.2-4-20.4-11.8-27.2c-9.1-7.9-20.8-9.1-32.4-9.1h-23.3v115.3H130v13.3h33.6
		v43h-12.5c-22.7,0-40.7,11.6-40.7,36c0,10.2,4,20.4,11.8,27.2c9.1,7.9,20.8,9.1,32.4,9.1h23.3V134.7H223v-13.3h-33.6v-43H202z
		 M189.4,19.6H200c15.2,0,28.5,5,28.5,22.6c0,16.6-12.3,23.1-27.4,23.1h-11.8V19.6z M163.6,236.5H153c-15.2,0-28.5-5-28.5-22.6
		c0-16.6,12.3-23.1,27.4-23.1h11.8V236.5z"/>
	<path d="M114.2,288.3c0-6.2-2.9-8.6-8.5-8.6h-7v29.2h5v-12c0.9,0,1.9,0,2.6-0.1l3.6,12.1h5.1l-4.3-13.2
		C112.4,294.9,114.2,293,114.2,288.3z M105.5,292.8h-1.8v-9h1.8c2.7,0,3.7,1,3.7,4.5C109.2,291.8,108.2,292.8,105.5,292.8z
		 M131,279.7h-7.4v29.2h7.4c5.2,0,7.9-2.8,7.9-8.8v-11.6C138.9,282.5,136.2,279.7,131,279.7z M133.9,300.7c0,3.1-0.9,4.1-3.6,4.1
		h-1.7v-21h1.7c2.7,0,3.6,1,3.6,4.1V300.7z M322.6,286.5c0-1.8,0.9-2.9,2.5-2.9c1.1,0,2.5,0.7,2.7,3.2l4.8-0.5
		c-0.4-4.1-2.9-7.1-7-7.1c-4.9,0-7.8,2.6-7.8,7.3c0,8.4,10.2,9.9,10.2,15.7c0,1.7-1.2,2.7-2.9,2.7c-1.6,0-2.8-1.5-3-4.4l-4.8,0.7
		c0.2,4.4,2.9,8.1,7.5,8.1c4.7,0,7.9-2.7,7.9-7.5C332.8,293.9,322.6,291.5,322.6,286.5z M304.8,308.9h5v-29.2h-5V308.9z M59.8,296.4
		L59.8,296.4l-6.2-16.7h-4.7v29.2h4.5v-18.3h0.1l6.4,18.3h4.4v-29.2h-4.5V296.4z M81.5,279.3c-5.3,0-7.7,3.4-7.7,7.5v15.1
		c0,4.1,2.4,7.5,7.7,7.5c5.3,0,7.7-3.4,7.7-7.5v-15.1C89.2,282.6,86.8,279.3,81.5,279.3z M84.2,301.7c0,2.2-0.6,3.2-2.7,3.2
		c-2,0-2.7-1.1-2.7-3.2v-14.8c0-2.2,0.6-3.2,2.7-3.2c2,0,2.7,1.1,2.7,3.2V301.7z M337.9,279.7v4.4h4.9v24.9h5V284h4.9v-4.4H337.9z
		 M269.8,290.8L269.8,290.8l-3.6-11.1h-5.1l6.1,17.1v12.1h5v-12.1l6.1-17.1h-5.1L269.8,290.8z M205.9,279.7h-7.2v29.2h5v-12h2.2
		c6.2,0,9.1-2.4,9.1-8.6C215,282.1,212.1,279.7,205.9,279.7z M205.7,292.8h-1.9v-9h1.9c3.3,0,4.3,1,4.3,4.5
		C209.9,291.8,208.9,292.8,205.7,292.8z M227,279.7h-5v29.2h12.9v-4.4H227V279.7z M245.6,279.7l-5.4,29.2h4.9l0.9-6.5h5.5l0.9,6.5
		h4.9l-5.4-29.2H245.6z M246.6,298l2-12.5h0.1l2,12.5H246.6z M289.9,279.7h-5v29.2h12.9v-4.4h-7.9V279.7z M147.9,308.9h5v-29.2h-5
		V308.9z M169.7,279.3c-5.3,0-7.7,3.4-7.7,7.5v15.1c0,4.1,2.4,7.5,7.7,7.5c5,0,7.4-3.4,7.4-7.5v-3.4h-5v3.5c0,1.9-0.6,3-2.4,3
		c-2,0-2.7-1.1-2.7-3.2v-14.8c0-2.2,0.6-3.2,2.7-3.2c1.3,0,2.4,1.1,2.4,3.5v2.3h5v-2.1C177.1,282.9,174.7,279.3,169.7,279.3z"/>
</g>
</svg>
